<?xml version="1.0" standalone="no"?>
<!DOCTYPE svg PUBLIC "-//W3C//DTD SVG 20010904//EN"
 "http://www.w3.org/TR/2001/REC-SVG-20010904/DTD/svg10.dtd">
<svg version="1.0" xmlns="http://www.w3.org/2000/svg"
 width="512.000000pt" height="512.000000pt" viewBox="0 0 512.000000 512.000000"
 preserveAspectRatio="xMidYMid meet">
<metadata>
Created by potrace 1.14, written by Peter Selinger 2001-2017
</metadata>
<g transform="translate(0.000000,512.000000) scale(0.100000,-0.100000)"
fill="#000000" stroke="none">
<path d="M2403 4833 l2 -168 60 -1 c70 -2 207 -13 250 -20 240 -38 408 -85
605 -169 311 -131 636 -372 848 -629 37 -45 69 -83 73 -86 3 -3 43 -61 88
-130 89 -135 192 -336 241 -469 53 -146 110 -374 124 -496 14 -128 18 -179 21
-237 1 -35 3 -66 4 -70 0 -5 76 -8 167 -8 l167 0 -6 123 c-4 67 -9 136 -11
152 -3 17 -8 53 -11 80 -4 28 -8 61 -9 75 -2 14 -8 50 -15 80 -6 30 -13 66
-16 79 -2 13 -20 79 -40 147 -143 500 -436 952 -836 1290 -83 71 -290 221
-319 232 -8 3 -17 8 -20 11 -14 17 -230 127 -334 171 -178 75 -435 150 -601
174 -22 4 -53 8 -70 11 -81 12 -116 15 -235 20 l-129 5 2 -167z"/>
<path d="M473 4105 c-373 -372 -391 -396 -401 -512 -11 -129 123 -642 246
-948 114 -283 247 -537 405 -775 390 -588 879 -1016 1532 -1345 110 -56 238
-116 285 -134 47 -18 99 -39 115 -47 62 -28 335 -113 475 -148 324 -81 423
-89 523 -43 50 22 108 76 397 365 226 226 341 347 346 366 12 49 -3 178 -30
260 -52 154 -170 295 -345 410 -169 112 -393 206 -528 222 -147 17 -290 -7
-357 -60 -28 -24 -34 -42 -80 -281 -22 -110 -56 -268 -58 -270 -6 -5 -180 69
-313 135 -159 78 -344 191 -490 300 -55 41 -102 77 -105 80 -3 3 -39 34 -80
70 -311 268 -580 618 -764 994 -54 109 -139 306 -133 306 1 0 58 12 127 26 69
14 134 27 145 30 200 40 262 56 273 72 71 92 94 260 57 420 -3 12 -7 32 -10
43 -33 154 -191 446 -307 570 -148 158 -314 237 -499 237 l-84 0 -342 -343z"/>
<path d="M2407 4173 c-8 -12 -6 -323 2 -324 11 -1 75 -7 150 -14 389 -32 790
-258 1031 -580 191 -256 281 -505 305 -845 1 -25 3 -48 4 -52 1 -5 76 -8 167
-8 l166 0 -6 98 c-11 177 -37 317 -92 487 -93 284 -280 571 -505 770 -93 84
-120 105 -220 171 -144 95 -327 181 -479 226 -100 29 -170 45 -240 54 -25 3
-54 8 -65 10 -47 9 -214 14 -218 7z"/>
<path d="M2403 3194 l2 -167 35 -3 c218 -17 403 -124 521 -302 69 -105 105
-208 111 -320 l3 -52 169 0 168 0 -6 80 c-8 95 -9 100 -36 196 -109 398 -473
697 -887 729 l-81 6 1 -167z"/>
</g>
</svg>
